# xmcd CD database file generated by Grip 3.0.3
# 
# Track frame offsets:
#       150
#       7904
#       25178
#       41494
#       55602
#       71790
#       87618
#       105879
#       121922
#       139145
#       161187
#       186770
#       211046
#       235328
#       254116
#       277434
#       301230
# 
# Disc length: 4382 seconds
# 
# Revision: 3
# Processed by: cddbd v1.4PL0 Copyright (c) Steve Scherf et al.
# Submitted via: Grip 3.0.3
# 
DISCID=f0111c11
DTITLE=Van Halen - Best Of Van Halen: Volume 1
DYEAR=1996
DGENRE=Rock
TTITLE0=Eruption
TTITLE1=Ain't Talkin' 'Bout Love
TTITLE2=Runnin' With The Devil
TTITLE3=Dance The Night Away
TTITLE4=And The Cradle Will Rock...
TTITLE5=Unchained
TTITLE6=Jump
TTITLE7=Panama
TTITLE8=Why Can't This Be Love
TTITLE9=Dreams
TTITLE10=When It's Love
TTITLE11=Poundcake
TTITLE12=Right Now
TTITLE13=Can't Stop Lovin' You
TTITLE14=Humans Being
TTITLE15=Can't Get This Stuff No More
TTITLE16=Me Wise Magic
EXTD=
EXTT0=
EXTT1=
EXTT2=
EXTT3=
EXTT4=
EXTT5=
EXTT6=
EXTT7=
EXTT8=
EXTT9=
EXTT10=
EXTT11=
EXTT12=
EXTT13=
EXTT14=
EXTT15=
EXTT16=
PLAYORDER=
